<mxfile host="65bd71144e">
    <diagram id="VsQyhykhxopu6DCny4N7" name="Page-1">
        <mxGraphModel dx="1074" dy="741" grid="1" gridSize="10" guides="1" tooltips="1" connect="1" arrows="1" fold="1" page="1" pageScale="1" pageWidth="850" pageHeight="1100" math="0" shadow="0">
            <root>
                <mxCell id="0"/>
                <mxCell id="1" parent="0"/>
                <mxCell id="6" value="&lt;br&gt;&lt;br&gt;" style="verticalLabelPosition=bottom;verticalAlign=top;html=1;shape=mxgraph.basic.rect;fillColor2=none;strokeWidth=1;size=20;indent=5;" parent="1" vertex="1">
                    <mxGeometry x="60" y="220" width="710" height="650" as="geometry"/>
                </mxCell>
                <mxCell id="7" value="&lt;font style=&quot;font-size: 25px&quot;&gt;Pizza Palace with Javascript&lt;/font&gt;" style="rounded=1;whiteSpace=wrap;html=1;absoluteArcSize=1;arcSize=14;strokeWidth=2;align=left;" parent="1" vertex="1">
                    <mxGeometry x="80" y="240" width="580" height="80" as="geometry"/>
                </mxCell>
                <mxCell id="10" value="Large" style="labelPosition=center;verticalLabelPosition=middle;align=center;html=1;shape=mxgraph.basic.shaded_button;dx=10;fillColor=#E6E6E6;strokeColor=none;fontSize=28;" parent="1" vertex="1">
                    <mxGeometry x="90" y="422.5" width="80" height="50" as="geometry"/>
                </mxCell>
                <mxCell id="11" value="xLarge" style="labelPosition=center;verticalLabelPosition=middle;align=center;html=1;shape=mxgraph.basic.shaded_button;dx=10;fillColor=#E6E6E6;strokeColor=none;fontSize=28;" parent="1" vertex="1">
                    <mxGeometry x="90" y="480" width="80" height="50" as="geometry"/>
                </mxCell>
                <mxCell id="12" value="=" style="text;html=1;align=center;verticalAlign=middle;resizable=0;points=[];autosize=1;strokeColor=none;fillColor=none;fontSize=28;" parent="1" vertex="1">
                    <mxGeometry x="180" y="432.5" width="30" height="40" as="geometry"/>
                </mxCell>
                <mxCell id="26" value="" style="edgeStyle=none;html=1;fontSize=25;" edge="1" parent="1" source="13" target="15">
                    <mxGeometry relative="1" as="geometry"/>
                </mxCell>
                <mxCell id="13" value="&lt;span style=&quot;font-family: &amp;#34;helvetica&amp;#34;&quot;&gt;=&lt;/span&gt;" style="text;html=1;align=center;verticalAlign=middle;resizable=0;points=[];autosize=1;strokeColor=none;fillColor=none;fontSize=28;" parent="1" vertex="1">
                    <mxGeometry x="180" y="475" width="30" height="40" as="geometry"/>
                </mxCell>
                <mxCell id="14" value="$6" style="text;html=1;align=center;verticalAlign=middle;resizable=0;points=[];autosize=1;strokeColor=none;fillColor=none;fontSize=28;" parent="1" vertex="1">
                    <mxGeometry x="210" y="435" width="50" height="40" as="geometry"/>
                </mxCell>
                <mxCell id="15" value="&lt;div style=&quot;text-align: center&quot;&gt;&lt;span&gt;&lt;font face=&quot;helvetica&quot;&gt;$10&lt;/font&gt;&lt;/span&gt;&lt;/div&gt;" style="text;whiteSpace=wrap;html=1;fontSize=28;" parent="1" vertex="1">
                    <mxGeometry x="210" y="472.5" width="90" height="45" as="geometry"/>
                </mxCell>
                <mxCell id="19" value="" style="verticalLabelPosition=bottom;verticalAlign=top;html=1;shape=mxgraph.basic.rect;fillColor2=none;strokeWidth=1;size=0;indent=5;fontSize=28;" parent="1" vertex="1">
                    <mxGeometry x="110" y="620" width="20" height="20" as="geometry"/>
                </mxCell>
                <mxCell id="20" value="" style="verticalLabelPosition=bottom;verticalAlign=top;html=1;shape=mxgraph.basic.rect;fillColor2=none;strokeWidth=1;size=0;indent=5;fontSize=28;" parent="1" vertex="1">
                    <mxGeometry x="110" y="650" width="20" height="20" as="geometry"/>
                </mxCell>
                <mxCell id="21" value="" style="verticalLabelPosition=bottom;verticalAlign=top;html=1;shape=mxgraph.basic.rect;fillColor2=none;strokeWidth=1;size=0;indent=5;fontSize=28;" parent="1" vertex="1">
                    <mxGeometry x="110" y="680" width="20" height="20" as="geometry"/>
                </mxCell>
                <mxCell id="22" value="" style="verticalLabelPosition=bottom;verticalAlign=top;html=1;shape=mxgraph.basic.rect;fillColor2=none;strokeWidth=1;size=0;indent=5;fontSize=28;" parent="1" vertex="1">
                    <mxGeometry x="110" y="710" width="20" height="20" as="geometry"/>
                </mxCell>
                <mxCell id="24" value="&lt;h4 style=&quot;padding: 0px ; font-family: &amp;#34;roboto&amp;#34; , &amp;#34;helvetica&amp;#34; , &amp;#34;arial&amp;#34; , sans-serif ; font-weight: 400 ; line-height: 32px ; margin: 24px 0px 16px ; color: rgba(0 , 0 , 0 , 0.87)&quot;&gt;&lt;font style=&quot;font-size: 20px&quot;&gt;Choose the size, and choose the toppings!&lt;/font&gt;&lt;/h4&gt;" style="text;html=1;align=center;verticalAlign=middle;resizable=0;points=[];autosize=1;strokeColor=none;fillColor=none;" vertex="1" parent="1">
                    <mxGeometry x="80" y="315" width="390" height="80" as="geometry"/>
                </mxCell>
                <mxCell id="27" value="&lt;h5 style=&quot;padding: 0px ; font-size: 20px ; font-weight: 500 ; line-height: 1 ; letter-spacing: 0.02em ; font-family: &amp;#34;roboto&amp;#34; , &amp;#34;helvetica&amp;#34; , &amp;#34;arial&amp;#34; , sans-serif ; margin: 24px 0px 16px ; color: rgba(0 , 0 , 0 , 0.87)&quot;&gt;Choose the size here:&lt;/h5&gt;" style="text;html=1;align=center;verticalAlign=middle;resizable=0;points=[];autosize=1;strokeColor=none;fillColor=none;fontSize=25;" vertex="1" parent="1">
                    <mxGeometry x="80" y="365" width="220" height="70" as="geometry"/>
                </mxCell>
                <mxCell id="28" value="&lt;font style=&quot;font-size: 21px&quot;&gt;1 Topping, $1.00&lt;br&gt;2 Toppings, $1,75&lt;br&gt;3 Toppings, $2.50&lt;br&gt;4 Toppings, $3.35&lt;/font&gt;" style="text;html=1;align=center;verticalAlign=middle;resizable=0;points=[];autosize=1;strokeColor=none;fillColor=none;fontSize=25;" vertex="1" parent="1">
                    <mxGeometry x="145" y="610" width="180" height="130" as="geometry"/>
                </mxCell>
                <mxCell id="29" value="Choose how many toppings you want here:" style="text;html=1;align=center;verticalAlign=middle;resizable=0;points=[];autosize=1;strokeColor=none;fillColor=none;fontSize=21;" vertex="1" parent="1">
                    <mxGeometry x="80" y="570" width="420" height="30" as="geometry"/>
                </mxCell>
                <mxCell id="30" value="Checkout" style="labelPosition=center;verticalLabelPosition=middle;align=center;html=1;shape=mxgraph.basic.shaded_button;dx=10;fillColor=#E6E6E6;strokeColor=none;labelBackgroundColor=none;fontSize=21;" vertex="1" parent="1">
                    <mxGeometry x="110" y="770" width="100" height="60" as="geometry"/>
                </mxCell>
            </root>
        </mxGraphModel>
    </diagram>
</mxfile>